<svg width="20" height="20" viewBox="0 0 20 20" fill="none" xmlns="http://www.w3.org/2000/svg">
<path d="M10.125 13.75V15.5" stroke="#292D32" stroke-width="1.2" stroke-linecap="round" stroke-linejoin="round"/>
<path d="M5.95898 18.334H14.2923V17.5007C14.2923 16.584 13.5423 15.834 12.6257 15.834H7.62565C6.70898 15.834 5.95898 16.584 5.95898 17.5007V18.334V18.334Z" stroke="#292D32" stroke-width="1.2" stroke-miterlimit="10"/>
<path d="M5.125 18.334H15.125" stroke="#292D32" stroke-width="1.2" stroke-linecap="round" stroke-linejoin="round"/>
<path d="M9.99935 13.3327C6.77435 13.3327 4.16602 10.7243 4.16602 7.49935V4.99935C4.16602 3.15768 5.65768 1.66602 7.49935 1.66602H12.4993C14.341 1.66602 15.8327 3.15768 15.8327 4.99935V7.49935C15.8327 10.7243 13.2243 13.3327 9.99935 13.3327Z" stroke="#292D32" stroke-width="1.2" stroke-linecap="round" stroke-linejoin="round"/>
<path d="M4.55755 9.70833C3.93255 9.50833 3.38255 9.14167 2.94922 8.70833C2.19922 7.875 1.69922 6.875 1.69922 5.70833C1.69922 4.54167 2.61589 3.625 3.78255 3.625H4.32422C4.15755 4.00833 4.07422 4.43333 4.07422 4.875V7.375C4.07422 8.20833 4.24922 8.99167 4.55755 9.70833Z" stroke="#292D32" stroke-width="1.2" stroke-linecap="round" stroke-linejoin="round"/>
<path d="M15.4414 9.70833C16.0664 9.50833 16.6164 9.14167 17.0497 8.70833C17.7997 7.875 18.2997 6.875 18.2997 5.70833C18.2997 4.54167 17.3831 3.625 16.2164 3.625H15.6747C15.8414 4.00833 15.9247 4.43333 15.9247 4.875V7.375C15.9247 8.20833 15.7497 8.99167 15.4414 9.70833Z" stroke="#292D32" stroke-width="1.2" stroke-linecap="round" stroke-linejoin="round"/>
</svg>
