<svg width="128" height="29" viewBox="0 0 128 29" fill="none" xmlns="http://www.w3.org/2000/svg">
<g clip-path="url(#clip0_5486_11328)">
<path d="M39.9725 4.4825C39.738 3.61602 39.2807 2.82609 38.6459 2.19139C38.0112 1.55669 37.2212 1.09938 36.3547 0.865C33.1825 0 20.4165 0 20.4165 0C20.4165 0 7.64997 0.02625 4.47822 0.89125C3.61178 1.12567 2.82187 1.583 2.18717 2.2177C1.55247 2.85239 1.09514 3.6423 0.860723 4.50875C-0.0987775 10.145 -0.471027 18.7327 0.886973 24.1432C1.12139 25.0097 1.57872 25.7996 2.21342 26.4343C2.84812 27.069 3.63803 27.5263 4.50447 27.7607C7.67647 28.6257 20.4427 28.6257 20.4427 28.6257C20.4427 28.6257 33.209 28.6257 36.381 27.7607C37.2474 27.5263 38.0373 27.069 38.672 26.4343C39.3067 25.7996 39.7641 25.0097 39.9985 24.1432C41.0102 18.4992 41.3222 9.91675 39.9722 4.48275" fill="#FF0000"/>
<path d="M16.353 20.447L26.9435 14.313L16.353 8.17871V20.447Z" fill="white"/>
<path d="M122.809 8.3097C124.198 8.3097 125.247 8.5717 125.981 9.0697C126.715 9.56787 127.239 10.3544 127.554 11.4292C127.868 12.504 127.999 13.9717 127.999 15.8592V18.9265H121.262V19.87L121.367 22.4652C121.446 23.042 121.577 23.4615 121.787 23.7235C121.997 23.9857 122.337 24.1167 122.783 24.1167C123.386 24.1167 123.805 23.881 124.015 23.4092C124.251 22.9372 124.356 22.1507 124.382 21.076L127.868 21.2857C127.895 21.443 127.895 21.6527 127.895 21.9147C127.895 23.5662 127.449 24.7985 126.531 25.611C125.614 26.4235 124.356 26.843 122.704 26.843C120.712 26.843 119.323 26.214 118.536 24.982C117.75 23.7497 117.33 21.8097 117.33 19.2147V16.0427C117.419 11.5865 118.203 8.3227 122.809 8.3097ZM74.339 8.65045V21.7837C74.339 22.5702 74.4175 23.147 74.601 23.4877C74.9733 24.2165 75.938 24.0302 76.4623 23.6712C76.7648 23.4665 77.0088 23.1865 77.17 22.8587V8.6502H81.1808V26.5545H78.035L77.6943 24.3525H77.6158C76.7508 26.004 75.466 26.8427 73.7623 26.8427C71.1398 26.8362 70.498 24.9467 70.3453 23.0277L70.3353 22.8925C70.3164 22.6018 70.3053 22.3107 70.302 22.0195V8.65045H74.339ZM95.022 8.65045V21.7837C95.022 22.5702 95.1005 23.147 95.284 23.4877C95.6565 24.2165 96.621 24.0302 97.1453 23.6712C97.4478 23.4665 97.6918 23.1865 97.853 22.8587V8.6502H101.864V26.5545H98.718L98.3773 24.3525H98.2988C97.4338 26.004 96.149 26.8427 94.4453 26.8427C91.8228 26.8362 91.181 24.9467 91.0283 23.0277L91.0183 22.8925C90.9994 22.6018 90.9883 22.3107 90.985 22.0195V8.65045H95.022ZM62.6998 8.3097C64.0105 8.3097 65.0853 8.5717 65.8718 9.1222C66.658 9.6727 67.261 10.5117 67.628 11.665C67.995 12.8185 68.1785 14.365 68.1785 16.2787V18.8737C68.1785 20.7875 67.995 22.308 67.628 23.4612C67.261 24.615 66.6843 25.4537 65.8718 26.0042C65.0593 26.5285 63.958 26.8167 62.595 26.8167C61.1793 26.843 60.0783 26.5547 59.2658 26.0305C58.4533 25.48 57.8763 24.641 57.5358 23.4877C57.1948 22.3342 57.0375 20.8137 57.0375 18.9002V16.3047C57.0375 14.391 57.221 12.8182 57.6143 11.6647C58.0075 10.4852 58.6103 9.6462 59.4493 9.1222C60.288 8.5977 61.3628 8.30945 62.6998 8.30945M108.155 1.12695V10.564H108.182C108.549 9.88245 109.02 9.33195 109.676 8.91245C110.288 8.50109 111.009 8.28205 111.747 8.28345C112.717 8.28345 113.451 8.54545 114.001 9.04345C114.552 9.56795 114.945 10.3805 115.181 11.5077C115.409 12.5997 115.539 14.11 115.547 16.0145L115.548 16.2002V19.0312C115.548 21.6787 115.207 23.645 114.578 24.9032C113.923 26.1615 112.926 26.7907 111.563 26.7907C110.803 26.7907 110.121 26.6072 109.492 26.2665C108.936 25.9421 108.475 25.4772 108.155 24.9185L108.103 24.8245H108.024L107.605 26.5285H104.276V1.1272L108.155 1.12695ZM92.112 2.04445V5.2947H88.1275V26.5545H84.1955V5.29495H80.1848V2.0447L92.112 2.04445ZM48.8848 2.04445L48.8873 2.05445C48.9255 2.2247 49.4555 4.58095 50.0385 7.3262L50.0845 7.5437L50.154 7.87245L50.2005 8.0932L50.2238 8.20395L50.2703 8.42595L50.2935 8.5372L50.3398 8.75995L50.4073 9.0857C50.801 10.9867 51.1768 12.8932 51.4015 14.2602H51.5065C51.7218 13.034 52.0345 11.4647 52.368 9.86245L52.4555 9.44395C52.4994 9.23429 52.5435 9.02495 52.588 8.81595L52.6565 8.4917C53.1094 6.36841 53.5758 4.24804 54.0558 2.1307L54.0633 2.09695L54.0753 2.04445H58.086L53.446 18.5857V26.5285H49.4878V18.6117H49.4615L44.874 2.0442L48.8848 2.04445ZM62.621 11.0882C62.0705 11.0882 61.7035 11.3767 61.4678 11.9797C61.232 12.5827 61.127 13.5 61.127 14.7847V20.3682C61.127 21.679 61.2318 22.6487 61.4415 23.2257C61.6514 23.8024 62.0445 24.0907 62.621 24.0907C63.1715 24.0907 63.5648 23.8024 63.8008 23.2257C64.0368 22.6487 64.1415 21.679 64.1415 20.3682V14.7845C64.1415 13.5 64.0365 12.5562 63.8008 11.9795C63.5648 11.3767 63.1715 11.0882 62.621 11.0882ZM108.863 11.6127C108.544 11.9077 108.316 12.2715 108.181 12.7262L108.155 12.8185V22.9895C108.48 23.54 108.942 23.907 109.754 23.9332C110.174 23.9332 110.514 23.776 110.777 23.4615C111.039 23.147 111.222 22.6226 111.327 21.8885C111.428 21.184 111.48 20.2136 111.484 18.9775V16.4885C111.484 15.073 111.432 13.9982 111.353 13.238C111.248 12.4777 111.118 11.9272 110.882 11.6127C110.425 10.9572 109.44 10.9652 108.863 11.6127ZM122.731 11.0097C122.285 11.0359 121.97 11.167 121.787 11.403C121.577 11.665 121.446 12.0582 121.367 12.635C121.29 13.2 121.264 15.175 121.262 15.254V16.541H124.198V15.406V15.4277C124.197 15.8245 124.188 15.1975 124.17 14.4277L124.168 14.3242C124.151 13.6477 124.127 12.8935 124.094 12.635C124.015 12.032 123.884 11.6125 123.674 11.3767C123.464 11.1407 123.15 11.0097 122.73 11.0097" fill="#282828"/>
</g>
<defs>
<clipPath id="clip0_5486_11328">
<rect width="128" height="29" fill="white"/>
</clipPath>
</defs>
</svg>
