<svg width="20" height="20" viewBox="0 0 20 20" fill="none" xmlns="http://www.w3.org/2000/svg">
<path d="M9.99935 12.916C11.841 12.916 13.3327 11.4243 13.3327 9.58268V4.99935C13.3327 3.15768 11.841 1.66602 9.99935 1.66602C8.15768 1.66602 6.66602 3.15768 6.66602 4.99935V9.58268C6.66602 11.4243 8.15768 12.916 9.99935 12.916Z" stroke="#292D32" stroke-width="1.2" stroke-linecap="round" stroke-linejoin="round"/>
<path d="M3.625 8.04102V9.45768C3.625 12.9743 6.48333 15.8327 10 15.8327C13.5167 15.8327 16.375 12.9743 16.375 9.45768V8.04102" stroke="#292D32" stroke-width="1.2" stroke-linecap="round" stroke-linejoin="round"/>
<path d="M8.8418 5.35859C9.5918 5.08359 10.4085 5.08359 11.1585 5.35859" stroke="#292D32" stroke-width="1.2" stroke-linecap="round" stroke-linejoin="round"/>
<path d="M9.33398 7.12461C9.77565 7.00794 10.234 7.00794 10.6757 7.12461" stroke="#292D32" stroke-width="1.2" stroke-linecap="round" stroke-linejoin="round"/>
<path d="M10 15.834V18.334" stroke="#292D32" stroke-width="1.2" stroke-linecap="round" stroke-linejoin="round"/>
</svg>
