<svg width="20" height="20" viewBox="0 0 20 20" fill="none" xmlns="http://www.w3.org/2000/svg">
<path d="M18.3327 9.90768V10.6493C18.3327 13.616 17.591 14.3493 14.6327 14.3493H5.36602C2.40768 14.3493 1.66602 13.6077 1.66602 10.6493V5.36602C1.66602 2.40768 2.40768 1.66602 5.36602 1.66602H6.66602" stroke="#292D32" stroke-width="1.2" stroke-linecap="round" stroke-linejoin="round"/>
<path d="M10 14.3496V18.3329" stroke="#292D32" stroke-width="1.2" stroke-linecap="round" stroke-linejoin="round"/>
<path d="M1.66602 10.834H18.3327" stroke="#292D32" stroke-width="1.2" stroke-linecap="round" stroke-linejoin="round"/>
<path d="M6.25 18.334H13.75" stroke="#292D32" stroke-width="1.2" stroke-linecap="round" stroke-linejoin="round"/>
<path d="M14.8828 7.80911H10.9161C9.76615 7.80911 9.38281 7.04245 9.38281 6.27578V3.34245C9.38281 2.42578 10.1328 1.67578 11.0495 1.67578H14.8828C15.7328 1.67578 16.4161 2.35911 16.4161 3.20911V6.27578C16.4161 7.12578 15.7328 7.80911 14.8828 7.80911Z" stroke="#292D32" stroke-width="1.2" stroke-linecap="round" stroke-linejoin="round"/>
<path d="M17.4243 6.59941L16.416 5.89108V3.59108L17.4243 2.88274C17.9243 2.54108 18.3327 2.74941 18.3327 3.35774V6.13274C18.3327 6.74108 17.9243 6.94941 17.4243 6.59941Z" stroke="#292D32" stroke-width="1.2" stroke-linecap="round" stroke-linejoin="round"/>
</svg>
