<svg width="20" height="20" viewBox="0 0 20 20" fill="none" xmlns="http://www.w3.org/2000/svg">
<path d="M14.166 18.334H5.83268C3.33268 18.334 1.66602 17.084 1.66602 14.1673V10.0007C1.66602 7.08398 3.33268 5.83398 5.83268 5.83398H14.166C16.666 5.83398 18.3327 7.08398 18.3327 10.0007V14.1673C18.3327 17.084 16.666 18.334 14.166 18.334Z" stroke="#292D32" stroke-width="1.2" stroke-miterlimit="10" stroke-linecap="round" stroke-linejoin="round"/>
<path d="M5 3.75H15" stroke="#292D32" stroke-width="1.2" stroke-miterlimit="10" stroke-linecap="round" stroke-linejoin="round"/>
<path d="M7.5 1.66602H12.5" stroke="#292D32" stroke-width="1.2" stroke-miterlimit="10" stroke-linecap="round" stroke-linejoin="round"/>
<path d="M7.40924 15.9259C8.03977 15.9259 8.5509 15.4148 8.5509 14.7842C8.5509 14.1537 8.03977 13.6426 7.40924 13.6426C6.77872 13.6426 6.26758 14.1537 6.26758 14.7842C6.26758 15.4148 6.77872 15.9259 7.40924 15.9259Z" stroke="#292D32" stroke-width="1.2" stroke-linecap="round" stroke-linejoin="round"/>
<path d="M12.7341 14.026V9.5676C12.7341 8.6176 12.1425 8.48429 11.5341 8.65095L9.25075 9.27595C8.83409 9.39262 8.55078 9.7176 8.55078 10.1926V10.9843V11.5176V14.7843" stroke="#292D32" stroke-width="1.2" stroke-linecap="round" stroke-linejoin="round"/>
<path d="M11.5928 15.1681C12.2234 15.1681 12.7345 14.657 12.7345 14.0264C12.7345 13.3959 12.2234 12.8848 11.5928 12.8848C10.9623 12.8848 10.4512 13.3959 10.4512 14.0264C10.4512 14.657 10.9623 15.1681 11.5928 15.1681Z" stroke="#292D32" stroke-width="1.2" stroke-linecap="round" stroke-linejoin="round"/>
<path d="M8.55078 11.5264L12.7341 10.3848" stroke="#292D32" stroke-width="1.2" stroke-linecap="round" stroke-linejoin="round"/>
</svg>
