<svg width="20" height="20" viewBox="0 0 20 20" fill="none" xmlns="http://www.w3.org/2000/svg">
<path d="M5.23281 18.3328C6.66875 18.3328 7.83281 17.1688 7.83281 15.7328C7.83281 14.2969 6.66875 13.1328 5.23281 13.1328C3.79687 13.1328 2.63281 14.2969 2.63281 15.7328C2.63281 17.1688 3.79687 18.3328 5.23281 18.3328Z" stroke="#292D32" stroke-width="1.2" stroke-linecap="round" stroke-linejoin="round"/>
<path d="M17.3673 14.0009V3.83427C17.3673 1.6676 16.009 1.3676 14.634 1.7426L9.43398 3.15927C8.48398 3.4176 7.83398 4.1676 7.83398 5.25093V7.05927V8.27593V15.7259" stroke="#292D32" stroke-width="1.2" stroke-linecap="round" stroke-linejoin="round"/>
<path d="M14.766 16.6004C16.202 16.6004 17.366 15.4363 17.366 14.0004C17.366 12.5644 16.202 11.4004 14.766 11.4004C13.3301 11.4004 12.166 12.5644 12.166 14.0004C12.166 15.4363 13.3301 16.6004 14.766 16.6004Z" stroke="#292D32" stroke-width="1.2" stroke-linecap="round" stroke-linejoin="round"/>
<path d="M7.83398 7.93398L17.3673 5.33398" stroke="#292D32" stroke-width="1.2" stroke-linecap="round" stroke-linejoin="round"/>
</svg>
