<svg width="20" height="20" viewBox="0 0 20 20" fill="none" xmlns="http://www.w3.org/2000/svg">
<path d="M2.10892 11.9944C1.93171 13.1219 2.72398 13.9045 3.69403 14.2945C7.41299 15.7898 12.5883 15.7898 16.3073 14.2945C17.2773 13.9045 18.0696 13.1219 17.8924 11.9944C17.7835 11.3015 17.245 10.7245 16.846 10.161C16.3234 9.41395 16.2715 8.59911 16.2714 7.73219C16.2714 4.38194 13.4639 1.66602 10.0007 1.66602C6.53742 1.66602 3.72992 4.38194 3.72992 7.73219C3.72985 8.59911 3.67792 9.41395 3.15532 10.161C2.75635 10.7245 2.21783 11.3015 2.10892 11.9944Z" stroke="#2A353D" stroke-width="1.2" stroke-linecap="round" stroke-linejoin="round"/>
<path d="M7.5 17.5C8.16345 18.0182 9.03956 18.3333 10 18.3333C10.9604 18.3333 11.8366 18.0182 12.5 17.5" stroke="#2A353D" stroke-width="1.2" stroke-linecap="round" stroke-linejoin="round"/>
</svg>
