<svg width="20" height="20" viewBox="0 0 20 20" fill="none" xmlns="http://www.w3.org/2000/svg">
<path d="M10.441 17.0158H5.17435C2.54102 17.0158 1.66602 15.2658 1.66602 13.5074V6.49076C1.66602 3.85742 2.54102 2.98242 5.17435 2.98242H10.441C13.0743 2.98242 13.9493 3.85742 13.9493 6.49076V13.5074C13.9493 16.1408 13.066 17.0158 10.441 17.0158Z" stroke="#292D32" stroke-width="1.2" stroke-linecap="round" stroke-linejoin="round"/>
<path d="M16.2659 14.2501L13.9492 12.6251V7.36678L16.2659 5.74178C17.3992 4.95011 18.3326 5.43344 18.3326 6.82511V13.1751C18.3326 14.5668 17.3992 15.0501 16.2659 14.2501Z" stroke="#292D32" stroke-width="1.2" stroke-linecap="round" stroke-linejoin="round"/>
<path d="M9.58398 9.16602C10.2743 9.16602 10.834 8.60637 10.834 7.91602C10.834 7.22566 10.2743 6.66602 9.58398 6.66602C8.89363 6.66602 8.33398 7.22566 8.33398 7.91602C8.33398 8.60637 8.89363 9.16602 9.58398 9.16602Z" stroke="#292D32" stroke-width="1.2" stroke-linecap="round" stroke-linejoin="round"/>
</svg>
