<svg width="20" height="20" viewBox="0 0 20 20" fill="none" xmlns="http://www.w3.org/2000/svg">
<path d="M12.4993 18.9577H7.49935C2.97435 18.9577 1.04102 17.0243 1.04102 12.4993V7.49935C1.04102 2.97435 2.97435 1.04102 7.49935 1.04102H12.4993C17.0243 1.04102 18.9577 2.97435 18.9577 7.49935V12.4993C18.9577 17.0243 17.0243 18.9577 12.4993 18.9577ZM7.49935 2.29102C3.65768 2.29102 2.29102 3.65768 2.29102 7.49935V12.4993C2.29102 16.341 3.65768 17.7077 7.49935 17.7077H12.4993C16.341 17.7077 17.7077 16.341 17.7077 12.4993V7.49935C17.7077 3.65768 16.341 2.29102 12.4993 2.29102H7.49935Z" fill="#292D32"/>
<path d="M17.8996 6.55078H2.09961C1.75794 6.55078 1.47461 6.26745 1.47461 5.92578C1.47461 5.58411 1.74961 5.30078 2.09961 5.30078H17.8996C18.2413 5.30078 18.5246 5.58411 18.5246 5.92578C18.5246 6.26745 18.2496 6.55078 17.8996 6.55078Z" fill="#292D32"/>
<path d="M7.09961 6.43281C6.75794 6.43281 6.47461 6.14948 6.47461 5.80781V1.75781C6.47461 1.41615 6.75794 1.13281 7.09961 1.13281C7.44128 1.13281 7.72461 1.41615 7.72461 1.75781V5.80781C7.72461 6.14948 7.44128 6.43281 7.09961 6.43281Z" fill="#292D32"/>
<path d="M12.9004 6.05781C12.5587 6.05781 12.2754 5.77448 12.2754 5.43281V1.75781C12.2754 1.41615 12.5587 1.13281 12.9004 1.13281C13.2421 1.13281 13.5254 1.41615 13.5254 1.75781V5.43281C13.5254 5.78281 13.2504 6.05781 12.9004 6.05781Z" fill="#292D32"/>
<path d="M9.24167 15.0991C8.94167 15.0991 8.65833 15.0241 8.4 14.8824C7.83333 14.5491 7.5 13.8824 7.5 13.0407V11.0407C7.5 10.1991 7.83333 9.52407 8.40833 9.19074C8.98333 8.8574 9.73333 8.9074 10.4583 9.3324L12.1917 10.3324C12.9167 10.7491 13.3417 11.3741 13.3417 12.0407C13.3417 12.7074 12.9167 13.3324 12.1833 13.7491L10.45 14.7491C10.05 14.9824 9.63333 15.0991 9.24167 15.0991ZM9.25 10.2241C9.16667 10.2241 9.09167 10.2407 9.03333 10.2741C8.85833 10.3741 8.75 10.6574 8.75 11.0407V13.0407C8.75 13.4157 8.85833 13.6991 9.03333 13.8074C9.20833 13.9074 9.50833 13.8574 9.83333 13.6657L11.5667 12.6657C11.8917 12.4741 12.0917 12.2407 12.0917 12.0407C12.0917 11.8407 11.9 11.6074 11.5667 11.4157L9.83333 10.4157C9.61667 10.2907 9.40833 10.2241 9.25 10.2241Z" fill="#292D32"/>
</svg>
